<?xml version="1.0" encoding="UTF-8"?>
<svg version="1.1" viewBox="0 0 2000 2000" width="500" height="500" xmlns="http://www.w3.org/2000/svg">
<path transform="translate(929,821)" d="m0 0h16l14 3 12 5 6 4-4 10-12 24-5-1-4-1h-12l-5 4-3 9-1 42h67l1 5v13l5-5 11-9 11-6 9-2h15l13 3 9 5-1 5-17 34-3 2-10-5-4-1h-17l-9 4-3 1-8 16-1 14v65l-4 1h-44l-1-1v-103l-3 1h-16v102l-1 1h-46l-2-1v-103l-2 1-14 1-2 3-5-1-13-4h-11l-11 4-8 6-6 10-2 6-1 9 2 11 6 10 8 7 10 4h15l10-3 5-2 10 19 7 13v2l-10 5-17 5-16 2h-12l-16-3-14-6-13-9-11-11-7-10-4-8-2-1 1 2v41l-2 1h-45l-1-1v-13h-2l-9 8-14 7-16 3h-13l-15-3-16-8-12-11-9-12-7-15v44l-2 1h-46l-1-1v-233l1-1h46l2 2v140l4-11 6-11 11-12 7-6 10-6 12-4 6-1h22l13 3 12 6 9 7 1-12h48l1 43 6-11 8-10 9-9 14-9 11-5 14-3h21l20 3 19 1v-33l2-17 3-11 5-12 8-11 9-8 10-5zm-257 136-10 4-10 9-4 8-2 10 1 11 6 12 7 7 9 4 6 1h8l9-2 8-5 8-9 3-8 1-12-2-9-4-8-8-8-8-4-5-1z"/>
<path transform="translate(1118,916)" d="m0 0h21l17 3 17 8 11 9 7 8 7 13 9-14 11-11 13-8 11-5 14-3h23l16 3 17 8 11 9 7 8 8 16 4 18 1 17-1 1-101 1 1 8 5 10 8 6 8 3 12 1 11-2 10-5 8-8 6 2 28 14 1 3-10 13-11 9-14 7-14 4-16 2h-15l-15-3-13-5-11-7-13-12-8-11-5-12-3-10v-7h-89l1 8 4 9 6 5 8 4 11 2 12-1 9-4 6-4 6-6 6 2 24 12 4 3-1 5-9 11-10 8-14 7-14 4-16 2h-16l-15-3-14-6-10-7-11-10-10-14-5-12-3-14v-16l4-17 6-12 8-11 9-9 14-9 11-5zm5 31-10 4-5 4-5 10 1 5h52l-1-6-4-8-7-6-9-3zm139 0-8 3-7 5-6 12v2l3 1h51l-1-6-4-8-7-6-9-3z"/>
<path transform="translate(1411 1e3)" d="m0 0h16l8 3 10 9 5 10 1 4v10l-4 10-6 8-10 6-10 2-11-1-10-5-7-8-4-9-1-11 2-9 6-10 10-7z"/>
<path transform="translate(1106,1092)" d="m0 0 5 1v38h-7l-4 1h-9l-5-4-3-6v-9l4-7 5-3h9l3 1 1-10zm-12 15-5 4-1 2v8l5 6h8l4-4v-11l-4-4z"/>
<path transform="translate(1023,1103)" d="m0 0h11l6 4 3 5v10l-3 5-5 4-2 1h-11l-5-4-3-6v-10l7-8zm3 4-5 3-2 3v7l3 5 3 2h8l4-4 1-8-4-6-4-2z"/>
<path transform="translate(954,1103)" d="m0 0h11l6 4 3 5v10l-4 6-6 4h-10l-6-4-3-6v-9l4-6zm3 4-5 3-2 4 1 9 5 4h8l4-4 1-8-4-6-4-2z"/>
<path transform="translate(897,1092)" d="m0 0h9v3l-7 2-1 6 7 2-1 3-5 1-2 22-5-1-1-21-5-2 2-3h4l1-8z"/>
</svg>
